# xmcd CD database file
#
# Track frame offsets:
#	182
#	14010
#	25517
#	37687
#	56035
#	66840
#	80175
#	94470
#	107422
#	121290
#	135067
#	147827
#	162135
#	176610
#	191047
#	205832
#	219495
#	233867
#	246915
#	259412
#	274307
#	286955
#	300972
#	316425
#	330590
#
# Disc length: 4591 seconds
#
# Revision: 1
# Processed by: cddbd v1.5.1PL0 Copyright (c) Steve Scherf et al.
# Submitted via: CDex 1.51
#
DISCID=6611ed19
DTITLE=Various Artist - Hot Music From Cuba 1907-1936
DYEAR=1993
DGENRE=Jazz
TTITLE0=Orquesta Valdes - Jamon Con Yuca
TTITLE1=Colombo Y Garcia - Mama Teresa
TTITLE2=Orquesta Pablo Valenzuela - Mama Teresa
TTITLE3=Orquesta Pablo Valenzuela - El Garrotin
TTITLE4=Terceto "Nano" - Punto De Nano
TTITLE5=Orquesta De Enrique Pena - El Biberon De Benitin
TTITLE6=Orquesta De Antonio Romeu - Donde Andaba Anoce?
TTITLE7=Terceto Yoyo - El Cangrejito
TTITLE8=Sexteto Habanero - Loma De Bellen
TTITLE9=Estudiantina Oriental De R. Martinez - Nanore
TTITLE10=Sexteto "Occidente" - Ven A Verme Soledad
TTITLE11=Sexteto Nacional - Mujeres Enamorenme
TTITLE12=Orquesta Felix Gonzalez - Cabaniguan
TTITLE13=Orquesta Francesca De Felipe Valdes - Rascame Aqui Que Me Pica
TTITLE14=Orquesta Romeu - Engancha Carretero
TTITLE15=Orquesta Romeu - Bururu Barara
TTITLE16=Orquesta Verar Del Real - El Nuevo Ford
TTITLE17=Ronda Lirica Oriental - Ingrata
TTITLE18=Ronda Lirica Oriental - Carabali
TTITLE19=Miguel Matamoros - Rafael Cueto - La Corneta China
TTITLE20=Trio Matamoros - Las Maracas De Cuba
TTITLE21=Enrique Byron Y Su Orquesta - Las Maracas De Cuba
TTITLE22=Cuarteto Machin - Vacilando
TTITLE23=Estrellas Habaneras - Buey Viejo
TTITLE24=Orquesta Paulina Alvarez - Almendra
EXTD=YEAR: 1993
EXTT0=
EXTT1=
EXTT2=
EXTT3=
EXTT4=
EXTT5=
EXTT6=
EXTT7=
EXTT8=
EXTT9=
EXTT10=
EXTT11=
EXTT12=
EXTT13=
EXTT14=
EXTT15=
EXTT16=
EXTT17=
EXTT18=
EXTT19=
EXTT20=
EXTT21=
EXTT22=
EXTT23=
EXTT24=
PLAYORDER=
